<svg width="36" height="36" viewBox="0 0 36 36" fill="none" xmlns="http://www.w3.org/2000/svg">
<rect x="2" y="2" width="32" height="32" rx="8" fill="#FD2D6C"/>
<path d="M17.098 15.5469H13.9872C13.9304 15.1444 13.8144 14.7869 13.6392 14.4744C13.464 14.1572 13.2391 13.8873 12.9645 13.6648C12.6899 13.4422 12.3726 13.2718 12.0128 13.1534C11.6577 13.035 11.2718 12.9759 10.8551 12.9759C10.1023 12.9759 9.4465 13.1629 8.88778 13.5369C8.32907 13.9062 7.89583 14.446 7.58807 15.1562C7.2803 15.8617 7.12642 16.7187 7.12642 17.7273C7.12642 18.7642 7.2803 19.6354 7.58807 20.3409C7.90057 21.0464 8.33617 21.5791 8.89489 21.9389C9.4536 22.2988 10.0999 22.4787 10.8338 22.4787C11.2457 22.4787 11.6269 22.4242 11.9773 22.3153C12.3324 22.2064 12.6473 22.0478 12.9219 21.8395C13.1965 21.6264 13.4238 21.3684 13.6037 21.0653C13.7884 20.7623 13.9162 20.4167 13.9872 20.0284L17.098 20.0426C17.0175 20.7102 16.8163 21.3542 16.4943 21.9744C16.1771 22.59 15.7486 23.1416 15.2088 23.6293C14.6738 24.1122 14.0346 24.4957 13.2912 24.7798C12.5526 25.0592 11.7169 25.1989 10.7841 25.1989C9.48674 25.1989 8.3267 24.9053 7.30398 24.3182C6.28598 23.7311 5.48106 22.8812 4.8892 21.7685C4.30208 20.6558 4.00852 19.3087 4.00852 17.7273C4.00852 16.1411 4.30682 14.7917 4.90341 13.679C5.5 12.5663 6.30966 11.7187 7.33239 11.1364C8.35511 10.5492 9.50568 10.2557 10.7841 10.2557C11.6269 10.2557 12.4081 10.3741 13.1278 10.6108C13.8523 10.8475 14.4938 11.1932 15.0526 11.6477C15.6113 12.0975 16.0658 12.6491 16.4162 13.3026C16.7713 13.956 16.9986 14.7041 17.098 15.5469ZM21.8743 10.4545L24.8075 15.4119H24.9212L27.8686 10.4545H31.3416L26.9027 17.7273L31.4411 25H27.9041L24.9212 20.0355H24.8075L21.8246 25H18.3018L22.8544 17.7273L18.3871 10.4545H21.8743Z" fill="white"/>
</svg>
