<svg width="36" height="36" viewBox="0 0 36 36" fill="none" xmlns="http://www.w3.org/2000/svg">
<rect x="2" y="2" width="32" height="32" rx="8" fill="#515151"/>
<path d="M14.4091 15.1562C14.3097 14.8106 14.17 14.5052 13.9901 14.2401C13.8101 13.9702 13.59 13.7429 13.3295 13.5582C13.0739 13.3688 12.7803 13.2244 12.4489 13.125C12.1222 13.0256 11.7599 12.9759 11.3622 12.9759C10.6188 12.9759 9.96544 13.1605 9.40199 13.5298C8.84328 13.8991 8.40767 14.4366 8.09517 15.142C7.78267 15.8428 7.62642 16.6998 7.62642 17.7131C7.62642 18.7263 7.7803 19.5881 8.08807 20.2983C8.39583 21.0085 8.83144 21.5507 9.39489 21.9247C9.95833 22.294 10.6236 22.4787 11.3906 22.4787C12.0866 22.4787 12.6809 22.3556 13.1733 22.1094C13.6705 21.8584 14.0492 21.5057 14.3097 21.0511C14.5748 20.5966 14.7074 20.0592 14.7074 19.4389L15.3324 19.5312H11.5824V17.2159H17.669V19.0483C17.669 20.3267 17.3991 21.4252 16.8594 22.3438C16.3196 23.2576 15.5762 23.9631 14.6293 24.4602C13.6823 24.9527 12.598 25.1989 11.3764 25.1989C10.0128 25.1989 8.81487 24.8982 7.78267 24.2969C6.75047 23.6908 5.94555 22.8314 5.3679 21.7188C4.79498 20.6013 4.50852 19.2756 4.50852 17.7415C4.50852 16.5625 4.67898 15.5114 5.01989 14.5881C5.36553 13.66 5.84848 12.8741 6.46875 12.2301C7.08902 11.5862 7.81108 11.0961 8.63494 10.7599C9.45881 10.4238 10.3513 10.2557 11.3125 10.2557C12.1364 10.2557 12.9034 10.3764 13.6136 10.6179C14.3239 10.8546 14.9536 11.1908 15.5028 11.6264C16.0568 12.062 16.509 12.5805 16.8594 13.1818C17.2098 13.7784 17.4347 14.4366 17.5341 15.1562H14.4091ZM19.979 25V10.4545H25.7177C26.8209 10.4545 27.7608 10.6652 28.5373 11.0866C29.3138 11.5033 29.9057 12.0833 30.3129 12.8267C30.7248 13.5653 30.9308 14.4176 30.9308 15.3835C30.9308 16.3494 30.7224 17.2017 30.3058 17.9403C29.8891 18.679 29.2854 19.2543 28.4947 19.6662C27.7087 20.0781 26.757 20.2841 25.6396 20.2841H21.9819V17.8196H25.1424C25.7343 17.8196 26.2219 17.7178 26.6055 17.5142C26.9937 17.3059 27.2826 17.0194 27.4719 16.6548C27.6661 16.2855 27.7631 15.8617 27.7631 15.3835C27.7631 14.9006 27.6661 14.4792 27.4719 14.1193C27.2826 13.7547 26.9937 13.473 26.6055 13.2741C26.2172 13.0705 25.7248 12.9688 25.1282 12.9688H23.0543V25H19.979Z" fill="white"/>
</svg>
