<svg width="36" height="36" viewBox="0 0 36 36" fill="none" xmlns="http://www.w3.org/2000/svg">
<path d="M32.9987 17.9725V18.0012C32.9987 26.285 26.2832 33 17.9987 33C14.5603 33.0054 11.2253 31.8244 8.55671 29.6562L8.58421 29.6787C8.42627 29.5505 8.29702 29.3905 8.20485 29.2092C8.11267 29.0278 8.05962 28.8291 8.04913 28.626C8.03864 28.4228 8.07095 28.2197 8.14396 28.0298C8.21697 27.84 8.32906 27.6675 8.47296 27.5237L9.15426 26.8425C9.40561 26.5887 9.74164 26.4365 10.0982 26.4148C10.4547 26.3931 10.8067 26.5036 11.0869 26.725L11.0844 26.7225C13.0489 28.2859 15.4868 29.1344 17.9975 29.1287C19.8135 29.1287 21.602 28.6844 23.2068 27.8344C24.8116 26.9845 26.1841 25.7548 27.2044 24.2526C28.2247 22.7504 28.862 21.0214 29.0605 19.2164C29.259 17.4114 29.0127 15.5853 28.3432 13.8973C27.6737 12.2093 26.6013 10.7108 25.2195 9.53245C23.8378 8.35412 22.1886 7.53178 20.416 7.13719C18.6433 6.74259 16.801 6.78773 15.0499 7.26865C13.2987 7.74958 11.6918 8.65168 10.3694 9.89626L10.3756 9.89126L13.4459 12.9613C13.5811 13.0966 13.6732 13.2691 13.7104 13.4568C13.7476 13.6445 13.7284 13.839 13.655 14.0157C13.5817 14.1925 13.4576 14.3435 13.2984 14.4497C13.1393 14.556 12.9522 14.6126 12.7608 14.6125H3.96758C3.71096 14.6125 3.46485 14.5106 3.2834 14.3291C3.10194 14.1477 3 13.9016 3 13.645V4.85251C3.00049 4.66143 3.05749 4.47476 3.16383 4.31599C3.27016 4.15721 3.42108 4.03343 3.5976 3.96021C3.77411 3.88699 3.96834 3.86761 4.15585 3.90449C4.34336 3.94138 4.51577 4.03289 4.65139 4.16752L7.63789 7.15376C10.4257 4.48277 14.139 2.99423 18 3.00002C26.2744 3.00002 32.985 9.70001 33 17.97V17.9712L32.9987 17.9725ZM22.0566 22.7362L22.6504 21.9725C22.7678 21.8224 22.8543 21.6507 22.9052 21.4671C22.956 21.2835 22.9701 21.0916 22.9467 20.9026C22.9232 20.7135 22.8626 20.5309 22.7685 20.3653C22.6743 20.1997 22.5484 20.0543 22.3979 19.9375L22.3941 19.935L19.9327 18.02V11.71C19.9327 10.9088 19.2826 10.2575 18.48 10.2575H17.5125C16.7111 10.2575 16.0598 10.9075 16.0598 11.71V19.91L20.0164 22.9862C20.3194 23.2234 20.7042 23.3307 21.0862 23.2846C21.4682 23.2384 21.8163 23.0425 22.0541 22.74L22.0566 22.7362Z" fill="#515151"/>
</svg>
