<svg width="52" height="52" viewBox="0 0 52 52" fill="none" xmlns="http://www.w3.org/2000/svg">
<path d="M0 16C0 7.16344 7.16344 0 16 0H36C44.8366 0 52 7.16344 52 16V36C52 44.8366 44.8366 52 36 52H16C7.16344 52 0 44.8366 0 36V16Z" fill="white"/>
<path d="M10.7758 19.2516L25.3344 25.8559C25.7594 26.049 26.24 26.049 26.665 25.8559L41.2236 19.2516C42.258 18.7822 42.258 17.2191 41.2236 16.7497L26.6656 10.1448C26.4568 10.0494 26.2299 10 26.0003 10C25.7707 10 25.5438 10.0494 25.335 10.1448L10.7758 16.7491C9.74141 17.2185 9.74141 18.7822 10.7758 19.2516ZM41.2242 24.769L37.5936 23.1234L27.4912 27.7027C27.0187 27.9171 26.5169 28.0258 26 28.0258C25.4831 28.0258 24.9819 27.9171 24.5088 27.7027L14.407 23.1234L10.7758 24.769C9.74141 25.2377 9.74141 26.8002 10.7758 27.269L25.3344 33.8682C25.7594 34.0607 26.24 34.0607 26.665 33.8682L41.2242 27.269C42.2586 26.8002 42.2586 25.2377 41.2242 24.769ZM41.2242 32.7564L37.6074 31.117L27.4912 35.7026C27.0187 35.917 26.5169 36.0257 26 36.0257C25.4831 36.0257 24.9819 35.917 24.5088 35.7026L14.3932 31.117L10.7758 32.7564C9.74141 33.2251 9.74141 34.7876 10.7758 35.2563L25.3344 41.8556C25.7594 42.0481 26.24 42.0481 26.665 41.8556L41.2242 35.2563C42.2586 34.7876 42.2586 33.2251 41.2242 32.7564Z" fill="#515151"/>
</svg>
