<svg width="36" height="36" viewBox="0 0 36 36" fill="none" xmlns="http://www.w3.org/2000/svg">
<path d="M2 9.44444C2 10.549 2.89543 11.4444 4 11.4444C5.10457 11.4444 6 10.549 6 9.44444H2ZM8.66667 4L8.66666 6H8.66667V4ZM6 26.5556C6 25.451 5.10457 24.5556 4 24.5556C2.89543 24.5556 2 25.451 2 26.5556H6ZM6 9.44444V8.66667H2V9.44444H6ZM6 8.66667C6 7.45114 6.00297 6.70907 6.06068 6.18962C6.12004 5.65542 6.20153 5.79356 5.99755 5.99755C5.79356 6.20153 5.65542 6.12004 6.18961 6.06068C6.70906 6.00297 7.45113 6 8.66666 6L8.66667 2C7.54887 2 6.54094 1.99703 5.74789 2.08515C4.96958 2.17163 3.95644 2.3818 3.16912 3.16912C2.3818 3.95644 2.17163 4.96958 2.08515 5.74789C1.99703 6.54094 2 7.54887 2 8.66667H6ZM8.66667 6H30.1333V2H8.66667V6ZM30.1333 6C30.1135 6 30.1081 5.99869 30.1144 5.99957C30.1199 6.00035 30.1286 6.00202 30.1381 6.00472C30.1613 6.01135 30.1564 6.01438 30.1314 5.9964C30.1172 5.98622 30.0972 5.96951 30.0754 5.94494C30.0532 5.91977 30.0335 5.89124 30.0184 5.86193C30.0032 5.8325 29.9975 5.81185 29.9963 5.8063C29.9952 5.80146 30 5.81943 30 5.86667H34C34 4.46816 33.3725 3.40106 32.4686 2.75027C31.6667 2.1729 30.7645 2 30.1333 2V6ZM30 5.86667V28.2667H34V5.86667H30ZM30 28.2667C30 28.5688 29.8929 29.0666 29.6303 29.4314C29.5135 29.5936 29.3728 29.7215 29.1931 29.8142C29.0149 29.9061 28.7278 30 28.2667 30V34C30.4118 34 31.9456 33.0614 32.8764 31.7686C33.7338 30.5778 34 29.2089 34 28.2667H30ZM28.2667 30H5.86667V34H28.2667V30ZM5.86667 30C5.88653 30 5.89193 30.0013 5.88561 30.0004C5.88009 29.9997 5.87138 29.998 5.86194 29.9953C5.83872 29.9887 5.84365 29.9856 5.86861 30.0036C5.88275 30.0138 5.90282 30.0305 5.92455 30.0551C5.94682 30.0802 5.96647 30.1088 5.98159 30.1381C5.99678 30.1675 6.00245 30.1882 6.00373 30.1937C6.00484 30.1985 6 30.1806 6 30.1333H2C2 31.5318 2.62751 32.5989 3.53139 33.2497C4.33329 33.8271 5.23551 34 5.86667 34V30ZM6 30.1333V26.5556H2V30.1333H6Z" fill="#515151"/>
<path d="M4 18H25.7778" stroke="#515151" stroke-width="4" stroke-linecap="round"/>
<path d="M17.8586 10.2222L25.7778 17.9999L17.8586 25.7777" stroke="#515151" stroke-width="4" stroke-linecap="round"/>
</svg>
