<svg width="36" height="36" viewBox="0 0 36 36" fill="none" xmlns="http://www.w3.org/2000/svg">
<g clip-path="url(#clip0_282_34240)">
<path d="M33.5033 6.20428L29.7391 2.47599C29.4155 2.17045 28.9856 2 28.5386 2C28.0915 2 27.6616 2.17045 27.3381 2.47599L23.991 5.80122H6.03471C5.49507 5.80122 4.97753 6.01355 4.59595 6.39149C4.21437 6.76943 4 7.28202 4 7.81651V29.9847C4 30.5192 4.21437 31.0318 4.59595 31.4097C4.97753 31.7877 5.49507 32 6.03471 32H28.4165C28.9561 32 29.4737 31.7877 29.8552 31.4097C30.2368 31.0318 30.4512 30.5192 30.4512 29.9847V11.6053L33.5033 8.58232C33.8213 8.26682 34 7.83917 34 7.3933C34 6.94743 33.8213 6.51979 33.5033 6.20428ZM19.0874 20.0392L14.8246 20.9764L15.842 16.7946L25.5577 7.15147L28.8438 10.4062L19.0874 20.0392ZM29.9425 9.25745L26.6565 6.00275L28.5386 4.13861L31.8246 7.3933L29.9425 9.25745Z" fill="#515151"/>
</g>
<defs>
<clipPath id="clip0_282_34240">
<rect width="36" height="36" fill="white"/>
</clipPath>
</defs>
</svg>
