<svg width="36" height="36" viewBox="0 0 36 36" fill="none" xmlns="http://www.w3.org/2000/svg">
<rect x="2" y="2" width="32" height="32" rx="8" fill="#515151"/>
<path d="M17.4304 10.4545V25H14.7741L8.44602 15.8452H8.33949V25H5.2642V10.4545H7.96307L14.2415 19.6023H14.3693V10.4545H17.4304ZM19.9712 25V10.4545H25.7099C26.8131 10.4545 27.753 10.6652 28.5295 11.0866C29.306 11.5033 29.8978 12.0833 30.305 12.8267C30.717 13.5653 30.9229 14.4176 30.9229 15.3835C30.9229 16.3494 30.7146 17.2017 30.2979 17.9403C29.8813 18.679 29.2776 19.2543 28.4869 19.6662C27.7009 20.0781 26.7492 20.2841 25.6317 20.2841H21.9741V17.8196H25.1346C25.7264 17.8196 26.2141 17.7178 26.5977 17.5142C26.9859 17.3059 27.2747 17.0194 27.4641 16.6548C27.6583 16.2855 27.7553 15.8617 27.7553 15.3835C27.7553 14.9006 27.6583 14.4792 27.4641 14.1193C27.2747 13.7547 26.9859 13.473 26.5977 13.2741C26.2094 13.0705 25.717 12.9688 25.1204 12.9688H23.0465V25H19.9712Z" fill="white"/>
</svg>
