<svg width="36" height="36" viewBox="0 0 36 36" fill="none" xmlns="http://www.w3.org/2000/svg">
<path d="M6.42097 20.3747L8.36812 19.918L6.42097 20.3747ZM6.42097 13.0987L8.36812 13.5554L6.42097 13.0987ZM27.0524 13.0987L28.9996 12.6419L27.0524 13.0987ZM27.0524 20.3747L28.9996 20.8315L27.0524 20.3747ZM20.3747 27.0524L19.918 25.1053L20.3747 27.0524ZM13.0987 27.0524L12.6419 28.9996L13.0987 27.0524ZM13.0987 6.42097L12.6419 4.47382L13.0987 6.42097ZM20.3747 6.42097L20.8315 4.47382L20.3747 6.42097ZM28.5858 31.4142C29.3668 32.1953 30.6332 32.1953 31.4142 31.4142C32.1953 30.6332 32.1953 29.3668 31.4142 28.5858L28.5858 31.4142ZM8.36812 19.918C7.87729 17.8255 7.87729 15.6479 8.36812 13.5554L4.47382 12.6419C3.84206 15.3352 3.84206 18.1382 4.47382 20.8315L8.36812 19.918ZM25.1053 13.5554C25.5961 15.6479 25.5961 17.8255 25.1053 19.918L28.9996 20.8315C29.6313 18.1382 29.6313 15.3352 28.9996 12.6419L25.1053 13.5554ZM19.918 25.1053C17.8255 25.5961 15.6479 25.5961 13.5554 25.1053L12.6419 28.9996C15.3352 29.6313 18.1382 29.6313 20.8315 28.9996L19.918 25.1053ZM13.5554 8.36812C15.6479 7.87729 17.8255 7.87729 19.918 8.36812L20.8315 4.47382C18.1382 3.84206 15.3352 3.84206 12.6419 4.47382L13.5554 8.36812ZM13.5554 25.1053C10.9816 24.5015 8.97186 22.4919 8.36812 19.918L4.47382 20.8315C5.4245 24.8844 8.58904 28.0489 12.6419 28.9996L13.5554 25.1053ZM20.8315 28.9996C24.8844 28.0489 28.0489 24.8844 28.9996 20.8315L25.1053 19.918C24.5015 22.4919 22.4918 24.5015 19.918 25.1053L20.8315 28.9996ZM19.918 8.36812C22.4918 8.97186 24.5015 10.9816 25.1053 13.5554L28.9996 12.6419C28.0489 8.58904 24.8844 5.4245 20.8315 4.47382L19.918 8.36812ZM12.6419 4.47382C8.58904 5.4245 5.4245 8.58903 4.47382 12.6419L8.36812 13.5554C8.97186 10.9816 10.9816 8.97186 13.5554 8.36812L12.6419 4.47382ZM23.6993 26.5277L28.5858 31.4142L31.4142 28.5858L26.5277 23.6993L23.6993 26.5277Z" fill="#515151"/>
</svg>
