<?xml version="1.0" standalone="no"?>
<!DOCTYPE svg PUBLIC "-//W3C//DTD SVG 20010904//EN"
 "http://www.w3.org/TR/2001/REC-SVG-20010904/DTD/svg10.dtd">
<svg version="1.0" xmlns="http://www.w3.org/2000/svg"
 width="36.000000pt" height="36.000000pt" viewBox="0 0 36.000000 36.000000"
 preserveAspectRatio="xMidYMid meet">

<g transform="translate(0.000000,36.000000) scale(0.100000,-0.100000)"
fill="#000000" stroke="none">
<path d="M64 328 c-34 -16 -44 -51 -44 -148 0 -144 16 -160 160 -160 144 0
160 16 160 160 0 99 -10 132 -47 149 -30 14 -200 13 -229 -1z m88 -85 c20 -18
24 -43 6 -43 -6 0 -19 7 -28 15 -33 30 -71 -15 -49 -57 11 -21 31 -23 59 -6
23 14 33 8 24 -16 -6 -17 -48 -32 -74 -27 -50 10 -69 92 -30 131 24 24 67 26
92 3z m81 -5 l16 -23 16 23 c15 21 45 31 45 15 0 -5 -9 -22 -19 -39 -19 -31
-19 -32 0 -60 10 -16 19 -32 19 -36 0 -17 -36 -7 -48 13 l-14 21 -14 -21 c-8
-11 -24 -21 -34 -21 -19 0 -18 1 2 36 21 35 21 38 5 66 -9 16 -17 34 -17 39 0
17 28 9 43 -13z"/>
</g>
</svg>
