<?xml version="1.0" standalone="no"?>
<!DOCTYPE svg PUBLIC "-//W3C//DTD SVG 20010904//EN"
 "http://www.w3.org/TR/2001/REC-SVG-20010904/DTD/svg10.dtd">
<svg version="1.0" xmlns="http://www.w3.org/2000/svg"
 width="36.000000pt" height="36.000000pt" viewBox="0 0 36.000000 36.000000"
 preserveAspectRatio="xMidYMid meet">

<g transform="translate(0.000000,36.000000) scale(0.100000,-0.100000)"
fill="#000000" stroke="none">
<path d="M64 328 c-34 -16 -44 -51 -44 -148 0 -144 16 -160 160 -160 144 0
160 16 160 160 0 99 -10 132 -47 149 -30 14 -200 13 -229 -1z m98 -90 c26 -26
9 -37 -28 -18 -32 18 -56 -2 -52 -44 2 -25 8 -32 31 -34 29 -4 37 12 11 22
-24 9 -6 26 27 26 34 0 39 -22 13 -58 -15 -22 -66 -30 -90 -14 -22 14 -35 53
-29 83 13 56 77 77 117 37z m130 5 c37 -33 17 -83 -34 -83 -23 0 -28 -4 -28
-25 0 -16 -6 -25 -15 -25 -12 0 -15 15 -15 75 l0 75 37 0 c20 0 45 -7 55 -17z"/>
<path d="M230 205 c0 -26 18 -33 37 -14 16 16 5 39 -18 39 -14 0 -19 -7 -19
-25z"/>
</g>
</svg>
