<?xml version="1.0" standalone="no"?>
<!DOCTYPE svg PUBLIC "-//W3C//DTD SVG 20010904//EN"
 "http://www.w3.org/TR/2001/REC-SVG-20010904/DTD/svg10.dtd">
<svg version="1.0" xmlns="http://www.w3.org/2000/svg"
 width="36.000000pt" height="36.000000pt" viewBox="0 0 36.000000 36.000000"
 preserveAspectRatio="xMidYMid meet">

<g transform="translate(0.000000,36.000000) scale(0.100000,-0.100000)"
fill="#000000" stroke="none">
<path d="M36 324 c-23 -22 -21 -77 2 -72 9 2 18 13 20 26 3 21 7 22 123 22
l119 0 0 -120 0 -120 -120 0 -120 0 0 26 c0 36 -34 29 -38 -9 -6 -52 8 -57
149 -57 173 0 169 -4 169 168 0 86 -4 132 -12 140 -8 8 -55 12 -144 12 -107 0
-136 -3 -148 -16z"/>
<path d="M160 262 c0 -5 12 -19 26 -33 l26 -24 -94 -5 c-74 -4 -93 -8 -93 -20
0 -12 18 -16 94 -18 l94 -3 -28 -29 c-22 -22 -26 -33 -18 -41 9 -9 25 1 65 39
l53 51 -45 45 c-39 41 -80 60 -80 38z"/>
</g>
</svg>
