<?xml version="1.0" standalone="no"?>
<!DOCTYPE svg PUBLIC "-//W3C//DTD SVG 20010904//EN"
 "http://www.w3.org/TR/2001/REC-SVG-20010904/DTD/svg10.dtd">
<svg version="1.0" xmlns="http://www.w3.org/2000/svg"
 width="36.000000pt" height="36.000000pt" viewBox="0 0 36.000000 36.000000"
 preserveAspectRatio="xMidYMid meet">

<g transform="translate(0.000000,36.000000) scale(0.100000,-0.100000)"
fill="#000000" stroke="none">
<path d="M64 328 c-34 -16 -44 -51 -44 -148 0 -144 16 -160 160 -160 144 0
160 16 160 160 0 99 -10 132 -47 149 -30 14 -200 13 -229 -1z m43 -110 l28
-42 3 43 c3 33 7 42 20 39 14 -3 18 -17 20 -76 3 -64 1 -72 -15 -72 -10 0 -29
17 -43 37 l-25 37 -3 -37 c-3 -29 -7 -37 -23 -37 -17 0 -19 7 -19 75 0 90 15
98 57 33z m185 25 c37 -33 17 -83 -34 -83 -23 0 -28 -4 -28 -25 0 -16 -6 -25
-15 -25 -12 0 -15 15 -15 75 l0 75 37 0 c20 0 45 -7 55 -17z"/>
<path d="M230 205 c0 -26 18 -33 37 -14 16 16 5 39 -18 39 -14 0 -19 -7 -19
-25z"/>
</g>
</svg>
