<?xml version="1.0" standalone="no"?>
<!DOCTYPE svg PUBLIC "-//W3C//DTD SVG 20010904//EN"
 "http://www.w3.org/TR/2001/REC-SVG-20010904/DTD/svg10.dtd">
<svg version="1.0" xmlns="http://www.w3.org/2000/svg"
 width="36.000000pt" height="36.000000pt" viewBox="0 0 36.000000 36.000000"
 preserveAspectRatio="xMidYMid meet">

<g transform="translate(0.000000,36.000000) scale(0.100000,-0.100000)"
fill="#000000" stroke="none">
<path d="M110 318 c-48 -25 -90 -89 -90 -138 0 -49 42 -113 90 -137 56 -29 84
-29 140 0 48 24 90 88 90 137 0 49 -42 113 -90 138 -24 12 -56 22 -70 22 -14
0 -46 -10 -70 -22z m105 -58 c24 -26 13 -68 -20 -76 -35 -9 -53 1 -61 31 -7
29 18 65 46 65 9 0 25 -9 35 -20z m8 -104 c40 -16 71 -51 64 -69 -7 -20 -69
-47 -107 -47 -38 0 -100 27 -107 47 -7 18 24 52 62 69 38 17 49 17 88 0z"/>
</g>
</svg>
