<?xml version="1.0" standalone="no"?>
<!DOCTYPE svg PUBLIC "-//W3C//DTD SVG 20010904//EN"
 "http://www.w3.org/TR/2001/REC-SVG-20010904/DTD/svg10.dtd">
<svg version="1.0" xmlns="http://www.w3.org/2000/svg"
 width="28.000000pt" height="28.000000pt" viewBox="0 0 28.000000 28.000000"
 preserveAspectRatio="xMidYMid meet">

<g transform="translate(0.000000,28.000000) scale(0.100000,-0.100000)"
fill="#000000" stroke="none">
<path d="M85 273 c-33 -8 -74 -54 -81 -91 -10 -52 12 -110 49 -132 34 -21 111
-27 137 -10 11 7 22 2 42 -17 22 -21 31 -24 40 -15 9 9 6 18 -15 40 -19 20
-24 31 -17 42 14 21 12 101 -3 130 -22 44 -90 68 -152 53z m90 -39 c26 -10 48
-62 41 -99 -11 -57 -62 -84 -121 -65 -42 14 -55 35 -55 89 0 31 6 44 26 60 26
21 76 27 109 15z"/>
</g>
</svg>
